#!OML:ASF H:\ManfredETheater\Project 1\Capture day 1\Session 1\subject.ASF
:FULLY-SPECIFIED
:DEGREES
93
root 4.06026 16.0295 -17.961 -157.381 -9.47779 -187.548
lowerback 17.4187 0.0639871 -4.56429
upperback -1.28436 -1.0689 -0.946583
thorax -11.1838 -0.296816 1.84594
lowerneck -23.453 -5.29751 -4.66441
upperneck 2.70918 -6.7197 4.90078
head 4.78043 -3.25681 1.56007
rclavicle 3.16068e-014 7.95139e-016
rhumerus -56.0701 0.471664 -88.9938
rradius 73.0145
rwrist -18.0025
rhand -31.605 9.00844
rfingers 7.12502
rthumb -4.86737 -20.9156
lclavicle 3.16068e-014 7.95139e-016
lhumerus -39.853 -15.4662 104.775
lradius 107.093
lwrist 13.5038
lhand -20.9552 -14.158
lfingers 7.12502
lthumb 5.41762 15.7528
rfemur -39.9121 -16.9913 16.1097
rtibia 108.254
rfoot -1.51903 -2.85606
rtoes -21.7946
lfemur -43.1276 -2.98498 -31.9384
ltibia 65.9683
lfoot -34.7461 -5.32253
ltoes 10.3593
94
root 4.07706 16.0421 -18.658 -157.127 -9.21538 -188.062
lowerback 16.975 -0.145722 -5.10924
upperback -1.56266 -1.44785 -1.01664
thorax -11.2081 -0.437978 2.17094
lowerneck -23.7847 -5.11834 -4.54904
upperneck 3.50799 -6.48042 4.8937
head 5.07004 -3.10553 1.55265
rclavicle 1.19271e-014 -6.75868e-015
rhumerus -58.6682 1.14956 -89.1533
rradius 73.3768
rwrist -18.2898
rhand -31.5376 9.76587
rfingers 7.12502
rthumb -4.80223 -20.1597
lclavicle 1.19271e-014 -6.75868e-015
lhumerus -38.497 -16.2795 105.03
lradius 109.992
lwrist 14.3211
lhand -20.604 -13.8027
lfingers 7.12502
lthumb 5.75672 16.0991
rfemur -44.2939 -17.1467 15.6371
rtibia 108.978
rfoot -3.27736 -3.00298
rtoes -22.8807
lfemur -39.9238 -3.09171 -31.8546
ltibia 64.8162
lfoot -35.2772 -5.28371
ltoes 7.08895
95
root 4.09354 16.0634 -19.366 -156.954 -8.89669 -188.509
lowerback 16.4838 -0.38632 -5.66867
upperback -1.80659 -1.85888 -1.03498
thorax -11.1544 -0.594584 2.56362
lowerneck -24.1349 -4.86036 -4.39447
upperneck 4.28478 -6.14626 4.81568
head 5.34883 -2.91478 1.52957
rclavicle -2.26615e-014 -2.14687e-014
rhumerus -61.1805 1.92367 -89.3206
rradius 73.9833
rwrist -18.2477
rhand -31.3453 10.4686
rfingers 7.12502
rthumb -4.61653 -19.4611
lclavicle -2.26615e-014 -2.14687e-014
lhumerus -37.3828 -16.9444 105.205
lradius 113.259
lwrist 15.7942
lhand -20.2567 -13.3824
lfingers 7.12502
lthumb 6.09199 16.51
rfemur -48.4269 -17.0587 15.2581
rtibia 109.001
rfoot -4.91793 -3.34488
rtoes -24.1415
lfemur -36.5844 -3.18738 -31.715
ltibia 63.4072
lfoot -35.1906 -5.41016
ltoes 3.18583
96
root 4.10893 16.0978 -20.0873 -156.875 -8.5314 -188.838
lowerback 15.9535 -0.644138 -6.16459
upperback -2.01997 -2.2656 -1.00018
thorax -11.0349 -0.754138 2.97046
lowerneck -24.464 -4.54351 -4.21116
upperneck 5.01749 -5.73911 4.668
head 5.60594 -2.69644 1.49127
rclavicle 2.00773e-014 1.03368e-014
rhumerus -63.5932 2.66834 -89.4211
rradius 74.7484
rwrist -17.7786
rhand -31.0915 10.9856
rfingers 7.12502
rthumb -4.37148 -18.9493
lclavicle 2.00773e-014 1.03368e-014
lhumerus -36.4595 -17.5689 105.273
lradius 116.711
lwrist 17.6787
lhand -19.9531 -12.9358
lfingers 7.12502
lthumb 6.38506 16.948
rfemur -52.2127 -16.7103 14.9955
rtibia 108.294
rfoot -6.39573 -3.88147
rtoes -25.4782
lfemur -33.1157 -3.27594 -31.4756
ltibia 61.7346
lfoot -34.4163 -5.73145
ltoes -1.14682
97
root 4.12278 16.1484 -20.8243 -156.905 -8.11195 -189.017
lowerback 15.3861 -0.897373 -6.54952
upperback -2.19572 -2.62912 -0.917074
thorax -10.8489 -0.902073 3.34877
lowerneck -24.7508 -4.19261 -4.01755
upperneck 5.69147 -5.28554 4.45926
head 5.83602 -2.46399 1.44031
rclavicle -3.77691e-015 1.39149e-014
rhumerus -65.8817 3.28887 -89.3995
rradius 75.5739
rwrist -16.9986
rhand -30.8404 11.4178
rfingers 7.12502
rthumb -4.12904 -18.522
lclavicle -3.77691e-015 1.39149e-014
lhumerus -35.672 -18.2252 105.208
lradius 120.159
lwrist 19.598
lhand -19.7486 -12.4945
lfingers 7.12502
lthumb 6.58252 17.3832
rfemur -55.5411 -16.1011 14.8394
rtibia 106.847
rfoot -7.6803 -4.59089
rtoes -26.7541
lfemur -29.512 -3.3333 -31.1243
ltibia 59.7835
lfoot -32.8803 -6.2707
ltoes -5.62868
98
root 4.13573 16.2154 -21.5766 -157.045 -7.63699 -189.066
lowerback 14.8062 -1.1267 -6.82624
upperback -2.33941 -2.92947 -0.800984
thorax -10.6224 -1.02864 3.67992
lowerneck -24.9706 -3.83117 -3.82482
upperneck 6.3057 -4.81127 4.19108
head 6.03688 -2.23012 1.3756
rclavicle 7.95139e-016 2.10712e-014
rhumerus -68.0366 3.7172 -89.2188
rradius 76.3868
rwrist -16.0737
rhand -30.637 11.7488
rfingers 7.12502
rthumb -3.93262 -18.1946
lclavicle 7.95139e-016 2.10712e-014
lhumerus -35.0132 -18.9445 105.01
lradius 123.444
lwrist 21.1778
lhand -19.6482 -12.1084
lfingers 7.12502
lthumb 6.67943 17.7663
rfemur -58.3493 -15.2844 14.7439
rtibia 104.695
rfoot -8.7573 -5.44167
rtoes -27.8578
lfemur -25.7896 -3.34754 -30.6996
ltibia 57.5485
lfoot -30.4547 -7.03741
ltoes -9.99165
99
root 4.14831 16.2969 -22.3437 -157.309 -7.0959 -189.013
lowerback 14.2427 -1.31415 -7.01701
upperback -2.44733 -3.15265 -0.664941
thorax -10.3723 -1.12573 3.96169
lowerneck -25.1195 -3.47696 -3.6535
upperneck 6.87668 -4.33328 3.87923
head 6.21518 -2.00178 1.3027
rclavicle 2.98177e-015 -1.03368e-014
rhumerus -70.0407 3.92622 -88.8543
rradius 77.1414
rwrist -15.1705
rhand -30.4653 11.9823
rfingers 7.12502
rthumb -3.76679 -17.9641
lclavicle 2.98177e-015 -1.03368e-014
lhumerus -34.4851 -19.7204 104.693
lradius 126.449
lwrist 22.1461
lhand -19.6732 -11.8072
lfingers 7.12502
lthumb 6.65533 18.0682
rfemur -60.5877 -14.3046 14.662
rtibia 101.892
rfoot -9.63273 -6.38087
rtoes -28.7497
lfemur -21.9485 -3.30353 -30.2455
ltibia 55.0272
lfoot -26.9484 -8.01406
ltoes -13.8676
100
root 4.16114 16.3881 -23.1227 -157.69 -6.48453 -188.905
lowerback 13.7119 -1.45186 -7.15731
upperback -2.52355 -3.30035 -0.527865
thorax -10.1146 -1.19187 4.19674
lowerneck -25.2046 -3.1438 -3.51706
upperneck 7.43229 -3.86614 3.54094
head 6.38236 -1.78411 1.22685
rclavicle 1.76918e-014 2.0276e-014
rhumerus -71.8813 3.92203 -88.3095
rradius 77.8082
rwrist -14.44
rhand -30.3136 12.1238
rfingers 7.12502
rthumb -3.62027 -17.8252
lclavicle 1.76918e-014 2.0276e-014
lhumerus -34.1103 -20.5158 104.292
lradius 129.098
lwrist 22.4133
lhand -19.8054 -11.6435
lfingers 7.12502
lthumb 6.52771 18.2359
rfemur -62.2801 -13.2314 14.5462
rtibia 98.5204
rfoot -10.3265 -7.33215
rtoes -29.407
lfemur -18.0242 -3.23728 -29.8188
ltibia 52.2309
lfoot -22.0873 -9.13371
ltoes -16.7996
101
root 4.17435 16.4854 -23.9114 -158.176 -5.81744 -188.767
lowerback 13.2221 -1.54567 -7.25818
upperback -2.56912 -3.38474 -0.396535
thorax -9.85552 -1.23183 4.38896
lowerneck -25.2485 -2.83373 -3.41467
upperneck 8.00115 -3.41281 3.18485
head 6.55134 -1.57732 1.14979
rclavicle 1.2424e-014 1.19271e-014
rhumerus -73.5401 3.75007 -87.6078
rradius 78.3777
rwrist -13.9868
rhand -30.1703 12.1681
rfingers 7.12502
rthumb -3.48189 -17.7832
lclavicle 1.2424e-014 1.19271e-014
lhumerus -33.894 -21.267 103.834
lradius 131.351
lwrist 22.0617
lhand -20.0072 -11.6335
lfingers 7.12502
lthumb 6.33286 18.2519
rfemur -63.4584 -12.122 14.3916
rtibia 94.6532
rfoot -10.8552 -8.23666
rtoes -29.8364
lfemur -14.0376 -3.21363 -29.449
ltibia 49.186
lfoot -15.7182 -10.1125
ltoes -18.5415
102
root 4.18748 16.5849 -24.7079 -158.748 -5.11846 -188.618
lowerback 12.7643 -1.60901 -7.31841
upperback -2.58336 -3.42413 -0.277495
thorax -9.58839 -1.25473 4.53527
lowerneck -25.2889 -2.54811 -3.35437
upperneck 8.61909 -2.97546 2.83828
head 6.74023 -1.38001 1.08103
rclavicle 3.43897e-014 -7.15625e-015
rhumerus -74.9955 3.46867 -86.7886
rradius 78.847
rwrist -13.8483
rhand -30.0304 12.18
rfingers 7.12502
rthumb -3.34683 -17.7734
lclavicle 3.43897e-014 -7.15625e-015
lhumerus -33.8322 -21.9101 103.337
lradius 133.196
lwrist 21.2776
lhand -20.2286 -11.7685
lfingers 7.12502
lthumb 6.1191 18.1231
rfemur -64.1721 -11.0302 14.1983
rtibia 90.3659
rfoot -11.2561 -9.02717
rtoes -30.1069
lfemur -10.0193 -3.32078 -29.1716
ltibia 45.9547
lfoot -7.85279 -10.5475
ltoes -18.4834
103
root 4.19998 16.6821 -25.5093 -159.381 -4.41328 -188.475
lowerback 12.3385 -1.65722 -7.33117
upperback -2.57487 -3.43952 -0.176291
thorax -9.32137 -1.27036 4.63113
lowerneck -25.3568 -2.51437 -3.2101
upperneck 9.31823 -2.49218 2.47249
head 6.96273 -0.991741 1.0195
rclavicle -7.04692e-014 -1.94809e-014
rhumerus -76.2396 3.13495 -85.8896
rradius 79.2314
rwrist -13.9451
rhand -29.8678 12.1619
rfingers 7.12502
rthumb -3.1898 -17.794
lclavicle -7.04692e-014 -1.94809e-014
lhumerus -33.9306 -22.3926 102.82
lradius 134.646
lwrist 20.262
lhand -20.4492 -11.996
lfingers 7.12502
lthumb 5.90619 17.9016
rfemur -64.4928 -9.99943 13.9734
rtibia 85.7331
rfoot -11.5611 -9.64804
rtoes -30.3386
lfemur -6.01143 -3.65676 -29.0355
ltibia 42.636
lfoot 1.08846 -10.1556
ltoes -16.1603
104
root 4.21218 16.7733 -26.3116 -160.024 -3.74339 -188.345
lowerback 11.9341 -1.71061 -7.29125
upperback -2.55252 -3.45698 -0.0904811
thorax -9.05512 -1.29092 4.68126
lowerneck -25.4759 -2.21736 -3.20797
upperneck 10.0672 -2.09034 2.16033
head 7.21523 -0.847004 0.964598
rclavicle 1.16289e-014 1.98785e-015
rhumerus -77.2466 2.80181 -84.9545
rradius 79.5426
rwrist -14.1328
rhand -29.6985 12.1622
rfingers 7.12502
rthumb -3.02634 -17.7961
lclavicle 1.16289e-014 1.98785e-015
lhumerus -34.1663 -22.6738 102.273
lradius 135.713
lwrist 19.1728
lhand -20.6404 -12.2603
lfingers 7.12502
lthumb 5.72155 17.6425
rfemur -64.5219 -9.0669 13.7398
rtibia 80.8238
rfoot -11.7591 -10.0666
rtoes -30.5623
lfemur -2.10864 -4.31677 -29.0827
ltibia 39.3933
lfoot 9.98626 -8.95749
ltoes -12.4719
